<svg xmlns="http://www.w3.org/2000/svg" width="112" height="112" viewBox="-41 -16.5 500 500">
  <g>
    <path fill="#7A0B14" d="M292.313 280.029c28.724 14.126 67.402 23.324 107.463 4.529l13.159 6.569 2.449-4.657-9.071-4.723 15.675-7.279-3.905-6.029-15.002 8.292 1.924-11.225-6.591.707-1.058 11.365s-47.286 24.513-102.055-5.036l-2.988 7.487z" />

    <path fill="#FFF" d="M86.76 306.21c13.168 6.298 17.365 25.002 9.333 41.774-8.032 16.773-25.202 25.254-38.373 18.937-13.171-6.317-17.363-25.003-9.35-41.772 8.015-16.77 25.206-25.237 38.39-18.94z">
    </path>

    <path fill="#BA654F" opacity=".5" transform="translate(27.786 411.813)" className="burn" d="M349.149 40.103c-.851 16.337-79.689 25.565-176.115 20.541C76.608 55.62-.847 38.286.007 21.913.86 5.539 79.714-3.65 176.122 1.373c96.408 5.023 173.873 22.487 173.027 38.73z" />
    <path fill="#ED1C24" d="M151.278 184.995s-31.579-6.805-46.944-17.402c-15.365-10.597-29.667-18.101-33.005-21.739-3.339-3.639-11.624 12.372-10.456 28.208 1.168 15.835 7.904 26.198 22.293 30.841 10.395 3.353 43.066 16.594 73.847 7.643l-5.735-27.551z" />
    <path fill="#ED1C24" d="M156.708 214.031s-29.992 11.805-48.716 11.567c-18.723-.238-34.731 1.39-39.529.218-4.798-1.171-2.812 16.745 6.952 29.242s21.103 17.407 35.65 13.289c10.485-2.961 45.034-10.065 65.708-34.585l-20.065-19.731z" />
    <path fill="#231F20" d="M268.886 104.767s6.944-53.936 9.061-73.82C280.064 11.064 249.083-2.017 208.31.256c-40.774 2.273-65.522 21.348-61.112 34.986 4.41 13.639 24.598 75.816 24.598 75.816l97.09-6.291z" />
    <path fill="#ED1C24" d="M271.615 83.256c-1.499 12.245-2.735 21.51-2.735 21.51l-97.02 6.278s-3.83-12.02-8.641-26.646c23.081-12.457 91.869-15.209 108.396-1.142z" />
    <path fill="#231F20" d="M116.95 119.818c.505 17.935 46.045 31.192 101.669 29.636 55.624-1.556 100.379-17.372 99.874-35.307-.505-17.935-46.049-31.208-101.673-29.653-55.624 1.556-100.378 17.372-99.87 35.324z" />
    <path fill="#FFF" d="M324.243 204.796c-1.526 50.653-59.018 93.15-108.032 90.952-50.496-2.285-92.782-51.063-95.555-98.999-2.953-54.367 46.974-101.161 101.265-102.973 57.31-1.95 103.931 57.383 102.322 111.02z" />
    <path fill="#FFF" d="M328.64 344.187c-9.557 61.842-40.665 96.26-146.107 95.093-89.402-.922-125.184-89.69-104.62-146.154 23.019-63.179 75.519-106.511 142.322-100.516 70.365 6.319 118.525 86.097 108.405 151.577z" />
    <path fill="#231F20" d="M198.201 169.492c.498 6.197-1.856 11.41-5.185 11.618-3.329.207-6.531-4.528-7.009-10.71-.477-6.182 1.856-11.41 5.185-11.618 3.329-.207 6.515 4.531 7.009 10.71zM281.401 160.89c.494 6.18-1.856 11.411-5.185 11.618-3.329.208-6.514-4.53-7.011-10.727-.498-6.197 1.857-11.393 5.184-11.618 3.326-.225 6.503 4.568 7.012 10.727zM262.103 202.053c-.297.01-.594-.03-.879-.12a2.444 2.444 0 0 1-1.709-2.137c-.027-.323.01-.648.109-.956a23.92 23.92 0 0 0 1.062-5.87 2.489 2.489 0 0 1 4.257-1.39c.435.451.682 1.05.695 1.676a27.925 27.925 0 0 1-1.304 7.075 2.454 2.454 0 0 1-2.231 1.722zm-46.996 5.78a2.507 2.507 0 0 1-2.24-1.175 28.732 28.732 0 0 1-2.903-6.558 2.492 2.492 0 0 1 .167-1.888 2.479 2.479 0 0 1 4.092-.443c.209.25.366.538.464.848a24.247 24.247 0 0 0 2.479 5.431 2.484 2.484 0 0 1-.774 3.375 2.487 2.487 0 0 1-1.198.396l-.087.014zm37.508 7.374a2.467 2.467 0 0 1-1.514-.402 2.464 2.464 0 0 1-1.002-2.798c.159-.512.481-.958.916-1.271a23.848 23.848 0 0 0 4.353-4.086 2.468 2.468 0 0 1 1.67-.886 2.48 2.48 0 0 1 2.417 1.302 2.476 2.476 0 0 1 .179 1.882c-.095.31-.25.599-.457.849a27.774 27.774 0 0 1-5.246 4.936c-.382.285-.84.45-1.316.474zm-25.102 3.083a2.252 2.252 0 0 1-1.069-.177 28.744 28.744 0 0 1-6.287-3.514 2.522 2.522 0 0 1-.591-3.478 2.501 2.501 0 0 1 1.617-1.02 2.491 2.491 0 0 1 1.862.428 23.665 23.665 0 0 0 5.187 2.931 2.47 2.47 0 0 1-.786 4.751l.067.079zm11.199 1.873l-1.781.052a2.475 2.475 0 0 1-2.278-1.534 2.499 2.499 0 0 1-.184-.947 2.526 2.526 0 0 1 2.496-2.482c.467.01.855-.02 1.392-.021a23.307 23.307 0 0 0 4.505-.766 2.481 2.481 0 0 1 3.014 1.788 2.477 2.477 0 0 1-1.787 3.015 27.817 27.817 0 0 1-5.377.895zM289.807 115.531s-15.015-7.49-72.053-7.304c-57.037.185-68.144 10.554-68.144 10.554s-13.532-24.778 71.323-29.133c84.855-4.355 68.874 25.883 68.874 25.883zM252.26 321.532a11.726 11.726 0 0 0 6.307 11.408 11.73 11.73 0 0 0 12.954-1.461 11.736 11.736 0 0 0 3.608-12.527 11.732 11.732 0 0 0-22.869 2.58zM252.314 363.863a11.738 11.738 0 0 0 6.308 11.408 11.733 11.733 0 0 0 16.658-7.178 11.73 11.73 0 0 0-3.96-12.42 11.722 11.722 0 0 0-6.329-2.517 11.717 11.717 0 0 0-8.561 2.722 11.708 11.708 0 0 0-4.116 7.985zM237.58 402.318a11.75 11.75 0 1 0 23.414 2.004 11.75 11.75 0 0 0-23.414-2.004z" />

    <path fill="#FFF" d="M371.209 318.445c7.629 12.466.964 30.438-14.912 40.114-15.877 9.675-34.882 7.464-42.511-5.002-7.629-12.465-.944-30.424 14.912-40.114 15.857-9.69 34.902-7.45 42.511 5.002z">
    </path>

    <path fill="#ED1C24" d="M121.393 203.298c4.249 9.425 42.094 40.273 92.545 45.77s106.29-25.659 109.479-34.701c3.189-9.042 9.821 14.098-.729 45.758-6.909 20.751-37.384 38.562-100.26 36.715-62.876-1.847-111.609-34.731-110.907-60.101.702-25.37 4.188-46.148 9.872-33.441z" />
    <path fill="#7A0B14" d="M96.151 271.347c-31.9 1.839-52.462 9.841-78.104 45.889L0 316.347l.382 5.303 13.271 1.325L3.51 337.011l6.365 3.338 8.992-14.59 3.846 10.728 5.391-3.868-4.668-10.411s28.258-46.782 73.639-42.786l-.924-8.075z" />
  </g>
</svg>