<svg xmlns="http://www.w3.org/2000/svg" style="display: none">
  <symbol id="chevron-up" viewBox="0 0 25 15">
    <path d="M23.535 13.873 12.41 1.3a.5.5 0 0 0-.749 0L.535 13.873" stroke-linecap="round" stroke-linejoin="round" />
  </symbol>
  <symbol id="youtube" viewBox="0 0 24 17">
    <path fill-rule="evenodd" clip-rule="evenodd" d="M3.94 0h16.12A3.94 3.94 0 0 1 24 3.94v9.12A3.94 3.94 0 0 1 20.06 17H3.94A3.94 3.94 0 0 1 0 13.06V3.94A3.94 3.94 0 0 1 3.94 0Zm5.83 12.86 6.77-4.36v.03a.5.5 0 0 0 0-.84L9.77 3.36a.5.5 0 0 0-.77.42v8.66a.5.5 0 0 0 .77.42Z" />
  </symbol>
  <symbol id="arrow-right" viewBox="0 0 10 18">
    <path d="M0.767334 16.6668L9.15134 9.2495C9.22263 9.18623 9.26344 9.09548 9.26344 9.00016C9.26344 8.90485 9.22263 8.81409 9.15134 8.75083L0.767334 1.3335" stroke-linecap="round" stroke-linejoin="round" />
  </symbol>
  <symbol id="location" viewBox="0 0 160 160">
    <path d="M80 140V156.667" stroke-linecap="round" stroke-linejoin="round" />
    <path fill-rule="evenodd" clip-rule="evenodd" d="M100.712 96.0174C111.854 79.3162 123.335 62.1084 123.335 46.6668C123.335 16.6668 106.668 3.3335 80.0013 3.3335C53.3346 3.3335 36.668 16.6668 36.668 46.6668C36.668 62.1084 48.1485 79.3162 59.2911 96.0174C69.7964 111.764 80.0013 127.059 80.0013 140C80.0013 127.059 90.2062 111.764 100.712 96.0174ZM80.0013 70.0002C92.8879 70.0002 103.335 59.5535 103.335 46.6668C103.335 33.7802 92.8879 23.3335 80.0013 23.3335C67.1146 23.3335 56.668 33.7802 56.668 46.6668C56.668 59.5535 67.1146 70.0002 80.0013 70.0002Z" />
    <path d="M100.712 96.0174L101.127 96.2949L100.712 96.0174ZM59.2911 96.0174L58.8751 96.2949L59.2911 96.0174ZM79.5013 140C79.5013 140.276 79.7251 140.5 80.0013 140.5C80.2774 140.5 80.5013 140.276 80.5013 140H79.5013ZM122.835 46.6668C122.835 54.2708 120.006 62.3491 115.757 70.6417C111.509 78.9312 105.871 87.3839 100.296 95.7399L101.127 96.2949C106.695 87.9498 112.368 79.4479 116.647 71.0978C120.923 62.7508 123.835 54.5044 123.835 46.6668H122.835ZM80.0013 3.8335C93.2578 3.8335 103.949 7.14759 111.325 14.1137C118.695 21.0749 122.835 31.758 122.835 46.6668H123.835C123.835 31.5756 119.641 20.5921 112.011 13.3867C104.387 6.18607 93.4114 2.8335 80.0013 2.8335V3.8335ZM37.168 46.6668C37.168 31.758 41.3073 21.0749 48.6779 14.1137C56.0538 7.14759 66.7448 3.8335 80.0013 3.8335V2.8335C66.5911 2.8335 55.6155 6.18607 47.9913 13.3867C40.362 20.5921 36.168 31.5756 36.168 46.6668H37.168ZM59.707 95.7399C54.1321 87.3839 48.4934 78.9312 44.246 70.6417C39.997 62.3491 37.168 54.2708 37.168 46.6668H36.168C36.168 54.5044 39.0792 62.7508 43.3561 71.0978C47.6346 79.4479 53.3075 87.9498 58.8751 96.2949L59.707 95.7399ZM80.5013 140C80.5013 133.408 77.9054 126.262 74.029 118.83C70.1497 111.391 64.9559 103.607 59.707 95.7399L58.8751 96.2949C64.1316 104.174 69.2928 111.911 73.1423 119.292C76.9947 126.679 79.5013 133.651 79.5013 140H80.5013ZM100.296 95.7399C95.0467 103.607 89.8528 111.391 85.9736 118.83C82.0972 126.262 79.5013 133.408 79.5013 140H80.5013C80.5013 133.651 83.0079 126.679 86.8602 119.292C90.7098 111.911 95.871 104.174 101.127 96.2949L100.296 95.7399ZM102.835 46.6668C102.835 59.2773 92.6118 69.5002 80.0013 69.5002V70.5002C93.1641 70.5002 103.835 59.8296 103.835 46.6668H102.835ZM80.0013 23.8335C92.6118 23.8335 102.835 34.0563 102.835 46.6668H103.835C103.835 33.504 93.1641 22.8335 80.0013 22.8335V23.8335ZM57.168 46.6668C57.168 34.0563 67.3908 23.8335 80.0013 23.8335V22.8335C66.8385 22.8335 56.168 33.504 56.168 46.6668H57.168ZM80.0013 69.5002C67.3908 69.5002 57.168 59.2773 57.168 46.6668H56.168C56.168 59.8296 66.8385 70.5002 80.0013 70.5002V69.5002Z" />
  </symbol>
  <symbol id="checkmark" viewBox="0 0 9 10">
    <path d="M8.5 1.166 3 8.833.833 6.666" stroke-linecap="round" stroke-linejoin="round" />
  </symbol>
  <symbol id="šal" viewBox="0 0 155 13">
    <path d="M8.42045 5.63636C8.42045 6.55682 8.25426 7.35227 7.92188 8.02273C7.58949 8.69318 7.13352 9.21023 6.55398 9.57386C5.97443 9.9375 5.3125 10.1193 4.56818 10.1193C3.82386 10.1193 3.16193 9.9375 2.58239 9.57386C2.00284 9.21023 1.54688 8.69318 1.21449 8.02273C0.882102 7.35227 0.715909 6.55682 0.715909 5.63636C0.715909 4.71591 0.882102 3.92045 1.21449 3.25C1.54688 2.57955 2.00284 2.0625 2.58239 1.69886C3.16193 1.33523 3.82386 1.15341 4.56818 1.15341C5.3125 1.15341 5.97443 1.33523 6.55398 1.69886C7.13352 2.0625 7.58949 2.57955 7.92188 3.25C8.25426 3.92045 8.42045 4.71591 8.42045 5.63636ZM7.39773 5.63636C7.39773 4.88068 7.27131 4.2429 7.01847 3.72301C6.76847 3.20312 6.42898 2.80966 6 2.54261C5.57386 2.27557 5.09659 2.14205 4.56818 2.14205C4.03977 2.14205 3.56108 2.27557 3.1321 2.54261C2.70597 2.80966 2.36648 3.20312 2.11364 3.72301C1.86364 4.2429 1.73864 4.88068 1.73864 5.63636C1.73864 6.39205 1.86364 7.02983 2.11364 7.54972C2.36648 8.0696 2.70597 8.46307 3.1321 8.73011C3.56108 8.99716 4.03977 9.13068 4.56818 9.13068C5.09659 9.13068 5.57386 8.99716 6 8.73011C6.42898 8.46307 6.76847 8.0696 7.01847 7.54972C7.27131 7.02983 7.39773 6.39205 7.39773 5.63636ZM15.4134 3.45455L12.9929 10H11.9702L9.54972 3.45455H10.6406L12.4474 8.67045H12.5156L14.3224 3.45455H15.4134ZM19.1655 10.1364C18.5746 10.1364 18.0561 9.99574 17.6101 9.71449C17.1669 9.43324 16.8203 9.03977 16.5703 8.53409C16.3232 8.02841 16.1996 7.4375 16.1996 6.76136C16.1996 6.07955 16.3232 5.48437 16.5703 4.97585C16.8203 4.46733 17.1669 4.07244 17.6101 3.79119C18.0561 3.50994 18.5746 3.36932 19.1655 3.36932C19.7564 3.36932 20.2734 3.50994 20.7166 3.79119C21.1626 4.07244 21.5092 4.46733 21.7564 4.97585C22.0064 5.48437 22.1314 6.07955 22.1314 6.76136C22.1314 7.4375 22.0064 8.02841 21.7564 8.53409C21.5092 9.03977 21.1626 9.43324 20.7166 9.71449C20.2734 9.99574 19.7564 10.1364 19.1655 10.1364ZM19.1655 9.23295C19.6143 9.23295 19.9837 9.1179 20.2734 8.88778C20.5632 8.65767 20.7777 8.35511 20.9169 7.98011C21.0561 7.60511 21.1257 7.19886 21.1257 6.76136C21.1257 6.32386 21.0561 5.91619 20.9169 5.53835C20.7777 5.16051 20.5632 4.85511 20.2734 4.62216C19.9837 4.3892 19.6143 4.27273 19.1655 4.27273C18.7166 4.27273 18.3473 4.3892 18.0575 4.62216C17.7678 4.85511 17.5533 5.16051 17.4141 5.53835C17.2749 5.91619 17.2053 6.32386 17.2053 6.76136C17.2053 7.19886 17.2749 7.60511 17.4141 7.98011C17.5533 8.35511 17.7678 8.65767 18.0575 8.88778C18.3473 9.1179 18.7166 9.23295 19.1655 9.23295ZM28.0472 6.0625V10H27.0415V3.45455H28.0131V4.47727H28.0984C28.2518 4.14489 28.4847 3.87784 28.7972 3.67614C29.1097 3.47159 29.5131 3.36932 30.0075 3.36932C30.4506 3.36932 30.8384 3.46023 31.1708 3.64205C31.5032 3.82102 31.7617 4.09375 31.9464 4.46023C32.131 4.82386 32.2234 5.28409 32.2234 5.84091V10H31.2177V5.90909C31.2177 5.39489 31.0842 4.99432 30.8171 4.70739C30.5501 4.41761 30.1836 4.27273 29.7177 4.27273C29.3967 4.27273 29.1097 4.34233 28.8569 4.48153C28.6069 4.62074 28.4094 4.82386 28.2646 5.09091C28.1197 5.35795 28.0472 5.68182 28.0472 6.0625ZM34.0611 10V3.45455H35.0668V10H34.0611ZM34.5724 2.36364C34.3764 2.36364 34.2074 2.29688 34.0653 2.16335C33.9261 2.02983 33.8565 1.86932 33.8565 1.68182C33.8565 1.49432 33.9261 1.33381 34.0653 1.20028C34.2074 1.06676 34.3764 1 34.5724 1C34.7685 1 34.9361 1.06676 35.0753 1.20028C35.2173 1.33381 35.2884 1.49432 35.2884 1.68182C35.2884 1.86932 35.2173 2.02983 35.0753 2.16335C34.9361 2.29688 34.7685 2.36364 34.5724 2.36364ZM36.9087 3.45455H37.9144V10.4773C37.9144 10.8807 37.8448 11.2301 37.7056 11.5256C37.5692 11.821 37.3619 12.0497 37.0835 12.2116C36.8079 12.3736 36.4599 12.4545 36.0394 12.4545C36.0053 12.4545 35.9712 12.4545 35.9371 12.4545C35.9031 12.4545 35.869 12.4545 35.8349 12.4545V11.517C35.869 11.517 35.9002 11.517 35.9286 11.517C35.957 11.517 35.9883 11.517 36.0224 11.517C36.3292 11.517 36.5536 11.4261 36.6957 11.2443C36.8377 11.0653 36.9087 10.8097 36.9087 10.4773V3.45455ZM37.4031 2.36364C37.207 2.36364 37.038 2.29688 36.896 2.16335C36.7567 2.02983 36.6871 1.86932 36.6871 1.68182C36.6871 1.49432 36.7567 1.33381 36.896 1.20028C37.038 1.06676 37.207 1 37.4031 1C37.5991 1 37.7667 1.06676 37.9059 1.20028C38.0479 1.33381 38.119 1.49432 38.119 1.68182C38.119 1.86932 38.0479 2.02983 37.9059 2.16335C37.7667 2.29688 37.5991 2.36364 37.4031 2.36364ZM42.5007 10.1364C41.87 10.1364 41.326 9.99716 40.8686 9.71875C40.4141 9.4375 40.0632 9.04545 39.8161 8.54261C39.5717 8.03693 39.4496 7.44886 39.4496 6.77841C39.4496 6.10795 39.5717 5.51705 39.8161 5.00568C40.0632 4.49148 40.407 4.09091 40.8473 3.80398C41.2905 3.5142 41.8075 3.36932 42.3984 3.36932C42.7393 3.36932 43.076 3.42614 43.4084 3.53977C43.7408 3.65341 44.0433 3.83807 44.3161 4.09375C44.5888 4.34659 44.8061 4.68182 44.968 5.09943C45.13 5.51705 45.2109 6.03125 45.2109 6.64205V7.06818H40.1655V6.19886H44.1882C44.1882 5.82955 44.1143 5.5 43.9666 5.21023C43.8217 4.92045 43.6143 4.69176 43.3445 4.52415C43.0774 4.35653 42.7621 4.27273 42.3984 4.27273C41.9979 4.27273 41.6513 4.37216 41.3587 4.57102C41.0689 4.76705 40.8459 5.02273 40.6896 5.33807C40.5334 5.65341 40.4553 5.99148 40.4553 6.35227V6.93182C40.4553 7.42614 40.5405 7.84517 40.7109 8.18892C40.8842 8.52983 41.1243 8.78977 41.4311 8.96875C41.7379 9.14489 42.0945 9.23295 42.5007 9.23295C42.7649 9.23295 43.0036 9.19602 43.2166 9.12216C43.4325 9.04545 43.6186 8.93182 43.7749 8.78125C43.9311 8.62784 44.0518 8.4375 44.1371 8.21023L45.1087 8.48295C45.0064 8.8125 44.8345 9.10227 44.593 9.35227C44.3516 9.59943 44.0533 9.79261 43.6982 9.93182C43.343 10.0682 42.9439 10.1364 42.5007 10.1364ZM54.7521 4.92045L53.8487 5.17614C53.7919 5.02557 53.7081 4.87926 53.5973 4.73722C53.4893 4.59233 53.3416 4.47301 53.1541 4.37926C52.9666 4.28551 52.7266 4.23864 52.4339 4.23864C52.0334 4.23864 51.6996 4.33097 51.4325 4.51562C51.1683 4.69744 51.0362 4.92898 51.0362 5.21023C51.0362 5.46023 51.1271 5.65767 51.3089 5.80256C51.4908 5.94744 51.7749 6.06818 52.1612 6.16477L53.1328 6.40341C53.718 6.54545 54.1541 6.76278 54.4411 7.0554C54.728 7.34517 54.8714 7.71875 54.8714 8.17614C54.8714 8.55114 54.7635 8.88636 54.5476 9.18182C54.3345 9.47727 54.0362 9.71023 53.6527 9.88068C53.2692 10.0511 52.8232 10.1364 52.3146 10.1364C51.647 10.1364 51.0945 9.99148 50.657 9.7017C50.2195 9.41193 49.9425 8.98864 49.826 8.43182L50.7805 8.19318C50.8714 8.54545 51.0433 8.80966 51.2962 8.9858C51.5518 9.16193 51.8857 9.25 52.2976 9.25C52.7663 9.25 53.1385 9.15057 53.4141 8.9517C53.6925 8.75 53.8317 8.50852 53.8317 8.22727C53.8317 8 53.7521 7.80966 53.593 7.65625C53.4339 7.5 53.1896 7.38352 52.8601 7.30682L51.7692 7.05114C51.1697 6.90909 50.7294 6.68892 50.4482 6.39062C50.1697 6.08949 50.0305 5.71307 50.0305 5.26136C50.0305 4.89205 50.1342 4.56534 50.3416 4.28125C50.5518 3.99716 50.8374 3.77415 51.1982 3.61222C51.5618 3.45028 51.9737 3.36932 52.4339 3.36932C53.0817 3.36932 53.5902 3.51136 53.9595 3.79545C54.3317 4.07955 54.5959 4.45455 54.7521 4.92045ZM51.5476 0.829545L52.4339 2.02273L53.3203 0.829545H54.2749V0.897727L52.8942 2.67045H51.9737L50.593 0.897727V0.829545H51.5476ZM58.3114 10.1534C57.8967 10.1534 57.5202 10.0753 57.1822 9.91903C56.8441 9.75994 56.5756 9.53125 56.3768 9.23295C56.1779 8.93182 56.0785 8.56818 56.0785 8.14205C56.0785 7.76705 56.1523 7.46307 56.3001 7.23011C56.4478 6.99432 56.6452 6.80966 56.8924 6.67614C57.1396 6.54261 57.4123 6.44318 57.7106 6.37784C58.0117 6.30966 58.3143 6.25568 58.6183 6.21591C59.016 6.16477 59.3384 6.12642 59.5856 6.10085C59.8356 6.07244 60.0174 6.02557 60.131 5.96023C60.2475 5.89489 60.3058 5.78125 60.3058 5.61932V5.58523C60.3058 5.16477 60.1907 4.83807 59.9606 4.60511C59.7333 4.37216 59.3881 4.25568 58.9251 4.25568C58.445 4.25568 58.0685 4.3608 57.7958 4.57102C57.5231 4.78125 57.3313 5.00568 57.2205 5.24432L56.266 4.90341C56.4364 4.50568 56.6637 4.19602 56.9478 3.97443C57.2347 3.75 57.5472 3.59375 57.8853 3.50568C58.2262 3.41477 58.5614 3.36932 58.891 3.36932C59.1012 3.36932 59.3427 3.39489 59.6154 3.44602C59.891 3.49432 60.1566 3.59517 60.4123 3.74858C60.6708 3.90199 60.8853 4.13352 61.0558 4.44318C61.2262 4.75284 61.3114 5.16761 61.3114 5.6875V10H60.3058V9.11364H60.2546C60.1864 9.25568 60.0728 9.40767 59.9137 9.5696C59.7546 9.73153 59.543 9.86932 59.2788 9.98295C59.0146 10.0966 58.6921 10.1534 58.3114 10.1534ZM58.4648 9.25C58.8626 9.25 59.1978 9.17188 59.4705 9.01562C59.7461 8.85938 59.9535 8.65767 60.0927 8.41051C60.2347 8.16335 60.3058 7.90341 60.3058 7.63068V6.71023C60.2631 6.76136 60.1694 6.80824 60.0245 6.85085C59.8825 6.89062 59.7177 6.92614 59.5302 6.95739C59.3455 6.9858 59.1651 7.01136 58.989 7.03409C58.8157 7.05398 58.6751 7.07102 58.5671 7.08523C58.3058 7.11932 58.0614 7.17472 57.8342 7.25142C57.6097 7.32528 57.4279 7.4375 57.2887 7.58807C57.1523 7.7358 57.0842 7.9375 57.0842 8.19318C57.0842 8.54261 57.2134 8.80682 57.4719 8.9858C57.7333 9.16193 58.0643 9.25 58.4648 9.25ZM64.1527 1.27273V10H63.147V1.27273H64.1527ZM67.4947 8.80682L67.4265 9.26705C67.3782 9.59091 67.3043 9.9375 67.2049 10.3068C67.1083 10.6761 67.0075 11.0241 66.9023 11.3509C66.7972 11.6776 66.7106 11.9375 66.6424 12.1307H65.8754C65.9123 11.9489 65.9606 11.7088 66.0202 11.4105C66.0799 11.1122 66.1396 10.7784 66.1992 10.4091C66.2617 10.0426 66.3129 9.66761 66.3526 9.28409L66.4038 8.80682H67.4947ZM75.392 10.1364C74.8011 10.1364 74.2827 9.99574 73.8366 9.71449C73.3935 9.43324 73.0469 9.03977 72.7969 8.53409C72.5497 8.02841 72.4261 7.4375 72.4261 6.76136C72.4261 6.07955 72.5497 5.48437 72.7969 4.97585C73.0469 4.46733 73.3935 4.07244 73.8366 3.79119C74.2827 3.50994 74.8011 3.36932 75.392 3.36932C75.983 3.36932 76.5 3.50994 76.9432 3.79119C77.3892 4.07244 77.7358 4.46733 77.983 4.97585C78.233 5.48437 78.358 6.07955 78.358 6.76136C78.358 7.4375 78.233 8.02841 77.983 8.53409C77.7358 9.03977 77.3892 9.43324 76.9432 9.71449C76.5 9.99574 75.983 10.1364 75.392 10.1364ZM75.392 9.23295C75.8409 9.23295 76.2102 9.1179 76.5 8.88778C76.7898 8.65767 77.0043 8.35511 77.1435 7.98011C77.2827 7.60511 77.3523 7.19886 77.3523 6.76136C77.3523 6.32386 77.2827 5.91619 77.1435 5.53835C77.0043 5.16051 76.7898 4.85511 76.5 4.62216C76.2102 4.3892 75.8409 4.27273 75.392 4.27273C74.9432 4.27273 74.5739 4.3892 74.2841 4.62216C73.9943 4.85511 73.7798 5.16051 73.6406 5.53835C73.5014 5.91619 73.4318 6.32386 73.4318 6.76136C73.4318 7.19886 73.5014 7.60511 73.6406 7.98011C73.7798 8.35511 73.9943 8.65767 74.2841 8.88778C74.5739 9.1179 74.9432 9.23295 75.392 9.23295ZM85.011 3.45455L82.5906 10H81.5678L79.1474 3.45455H80.2383L82.0451 8.67045H82.1133L83.9201 3.45455H85.011ZM88.7631 10.1364C88.1722 10.1364 87.6538 9.99574 87.2077 9.71449C86.7646 9.43324 86.418 9.03977 86.168 8.53409C85.9208 8.02841 85.7972 7.4375 85.7972 6.76136C85.7972 6.07955 85.9208 5.48437 86.168 4.97585C86.418 4.46733 86.7646 4.07244 87.2077 3.79119C87.6538 3.50994 88.1722 3.36932 88.7631 3.36932C89.354 3.36932 89.8711 3.50994 90.3143 3.79119C90.7603 4.07244 91.1069 4.46733 91.354 4.97585C91.604 5.48437 91.729 6.07955 91.729 6.76136C91.729 7.4375 91.604 8.02841 91.354 8.53409C91.1069 9.03977 90.7603 9.43324 90.3143 9.71449C89.8711 9.99574 89.354 10.1364 88.7631 10.1364ZM88.7631 9.23295C89.212 9.23295 89.5813 9.1179 89.8711 8.88778C90.1609 8.65767 90.3754 8.35511 90.5146 7.98011C90.6538 7.60511 90.7234 7.19886 90.7234 6.76136C90.7234 6.32386 90.6538 5.91619 90.5146 5.53835C90.3754 5.16051 90.1609 4.85511 89.8711 4.62216C89.5813 4.3892 89.212 4.27273 88.7631 4.27273C88.3143 4.27273 87.945 4.3892 87.6552 4.62216C87.3654 4.85511 87.1509 5.16051 87.0117 5.53835C86.8725 5.91619 86.8029 6.32386 86.8029 6.76136C86.8029 7.19886 86.8725 7.60511 87.0117 7.98011C87.1509 8.35511 87.3654 8.65767 87.6552 8.88778C87.945 9.1179 88.3143 9.23295 88.7631 9.23295ZM96.6392 3.45455H97.6449V10.4773C97.6449 10.8807 97.5753 11.2301 97.4361 11.5256C97.2997 11.821 97.0923 12.0497 96.8139 12.2116C96.5384 12.3736 96.1903 12.4545 95.7699 12.4545C95.7358 12.4545 95.7017 12.4545 95.6676 12.4545C95.6335 12.4545 95.5994 12.4545 95.5653 12.4545V11.517C95.5994 11.517 95.6307 11.517 95.6591 11.517C95.6875 11.517 95.7188 11.517 95.7528 11.517C96.0597 11.517 96.2841 11.4261 96.4261 11.2443C96.5682 11.0653 96.6392 10.8097 96.6392 10.4773V3.45455ZM97.1335 2.36364C96.9375 2.36364 96.7685 2.29688 96.6264 2.16335C96.4872 2.02983 96.4176 1.86932 96.4176 1.68182C96.4176 1.49432 96.4872 1.33381 96.6264 1.20028C96.7685 1.06676 96.9375 1 97.1335 1C97.3295 1 97.4972 1.06676 97.6364 1.20028C97.7784 1.33381 97.8494 1.49432 97.8494 1.68182C97.8494 1.86932 97.7784 2.02983 97.6364 2.16335C97.4972 2.29688 97.3295 2.36364 97.1335 2.36364ZM102.231 10.1364C101.6 10.1364 101.056 9.99716 100.599 9.71875C100.145 9.4375 99.7937 9.04545 99.5465 8.54261C99.3022 8.03693 99.18 7.44886 99.18 6.77841C99.18 6.10795 99.3022 5.51705 99.5465 5.00568C99.7937 4.49148 100.137 4.09091 100.578 3.80398C101.021 3.5142 101.538 3.36932 102.129 3.36932C102.47 3.36932 102.806 3.42614 103.139 3.53977C103.471 3.65341 103.774 3.83807 104.047 4.09375C104.319 4.34659 104.537 4.68182 104.699 5.09943C104.86 5.51705 104.941 6.03125 104.941 6.64205V7.06818H99.896V6.19886H103.919C103.919 5.82955 103.845 5.5 103.697 5.21023C103.552 4.92045 103.345 4.69176 103.075 4.52415C102.808 4.35653 102.493 4.27273 102.129 4.27273C101.728 4.27273 101.382 4.37216 101.089 4.57102C100.799 4.76705 100.576 5.02273 100.42 5.33807C100.264 5.65341 100.186 5.99148 100.186 6.35227V6.93182C100.186 7.42614 100.271 7.84517 100.441 8.18892C100.615 8.52983 100.855 8.78977 101.162 8.96875C101.468 9.14489 101.825 9.23295 102.231 9.23295C102.495 9.23295 102.734 9.19602 102.947 9.12216C103.163 9.04545 103.349 8.93182 103.505 8.78125C103.662 8.62784 103.782 8.4375 103.868 8.21023L104.839 8.48295C104.737 8.8125 104.565 9.10227 104.324 9.35227C104.082 9.59943 103.784 9.79261 103.429 9.93182C103.074 10.0682 102.674 10.1364 102.231 10.1364ZM109.846 10V3.45455H110.852V10H109.846ZM110.358 2.36364C110.162 2.36364 109.993 2.29688 109.85 2.16335C109.711 2.02983 109.642 1.86932 109.642 1.68182C109.642 1.49432 109.711 1.33381 109.85 1.20028C109.993 1.06676 110.162 1 110.358 1C110.554 1 110.721 1.06676 110.86 1.20028C111.002 1.33381 111.074 1.49432 111.074 1.68182C111.074 1.86932 111.002 2.02983 110.86 2.16335C110.721 2.29688 110.554 2.36364 110.358 2.36364ZM117.33 4.92045L116.427 5.17614C116.37 5.02557 116.286 4.87926 116.175 4.73722C116.067 4.59233 115.92 4.47301 115.732 4.37926C115.545 4.28551 115.305 4.23864 115.012 4.23864C114.612 4.23864 114.278 4.33097 114.011 4.51562C113.746 4.69744 113.614 4.92898 113.614 5.21023C113.614 5.46023 113.705 5.65767 113.887 5.80256C114.069 5.94744 114.353 6.06818 114.739 6.16477L115.711 6.40341C116.296 6.54545 116.732 6.76278 117.019 7.0554C117.306 7.34517 117.45 7.71875 117.45 8.17614C117.45 8.55114 117.342 8.88636 117.126 9.18182C116.913 9.47727 116.614 9.71023 116.231 9.88068C115.847 10.0511 115.401 10.1364 114.893 10.1364C114.225 10.1364 113.673 9.99148 113.235 9.7017C112.798 9.41193 112.521 8.98864 112.404 8.43182L113.359 8.19318C113.45 8.54545 113.621 8.80966 113.874 8.9858C114.13 9.16193 114.464 9.25 114.876 9.25C115.344 9.25 115.717 9.15057 115.992 8.9517C116.271 8.75 116.41 8.50852 116.41 8.22727C116.41 8 116.33 7.80966 116.171 7.65625C116.012 7.5 115.768 7.38352 115.438 7.30682L114.347 7.05114C113.748 6.90909 113.308 6.68892 113.026 6.39062C112.748 6.08949 112.609 5.71307 112.609 5.26136C112.609 4.89205 112.712 4.56534 112.92 4.28125C113.13 3.99716 113.415 3.77415 113.776 3.61222C114.14 3.45028 114.552 3.36932 115.012 3.36932C115.66 3.36932 116.168 3.51136 116.538 3.79545C116.91 4.07955 117.174 4.45455 117.33 4.92045ZM121.81 3.45455V4.30682H118.418V3.45455H121.81ZM119.407 1.88636H120.412V8.125C120.412 8.40909 120.453 8.62216 120.536 8.7642C120.621 8.90341 120.729 8.99716 120.86 9.04545C120.993 9.09091 121.134 9.11364 121.282 9.11364C121.392 9.11364 121.483 9.10795 121.554 9.09659C121.625 9.08239 121.682 9.07102 121.725 9.0625L121.929 9.96591C121.861 9.99148 121.766 10.017 121.644 10.0426C121.522 10.071 121.367 10.0852 121.179 10.0852C120.895 10.0852 120.617 10.0241 120.344 9.90199C120.074 9.77983 119.85 9.59375 119.671 9.34375C119.495 9.09375 119.407 8.77841 119.407 8.39773V1.88636ZM125.912 10.1364C125.321 10.1364 124.802 9.99574 124.356 9.71449C123.913 9.43324 123.566 9.03977 123.316 8.53409C123.069 8.02841 122.946 7.4375 122.946 6.76136C122.946 6.07955 123.069 5.48437 123.316 4.97585C123.566 4.46733 123.913 4.07244 124.356 3.79119C124.802 3.50994 125.321 3.36932 125.912 3.36932C126.502 3.36932 127.02 3.50994 127.463 3.79119C127.909 4.07244 128.255 4.46733 128.502 4.97585C128.752 5.48437 128.877 6.07955 128.877 6.76136C128.877 7.4375 128.752 8.02841 128.502 8.53409C128.255 9.03977 127.909 9.43324 127.463 9.71449C127.02 9.99574 126.502 10.1364 125.912 10.1364ZM125.912 9.23295C126.36 9.23295 126.73 9.1179 127.02 8.88778C127.309 8.65767 127.524 8.35511 127.663 7.98011C127.802 7.60511 127.872 7.19886 127.872 6.76136C127.872 6.32386 127.802 5.91619 127.663 5.53835C127.524 5.16051 127.309 4.85511 127.02 4.62216C126.73 4.3892 126.36 4.27273 125.912 4.27273C125.463 4.27273 125.093 4.3892 124.804 4.62216C124.514 4.85511 124.299 5.16051 124.16 5.53835C124.021 5.91619 123.951 6.32386 123.951 6.76136C123.951 7.19886 124.021 7.60511 124.16 7.98011C124.299 8.35511 124.514 8.65767 124.804 8.88778C125.093 9.1179 125.463 9.23295 125.912 9.23295ZM138.424 4.92045L137.521 5.17614C137.464 5.02557 137.38 4.87926 137.269 4.73722C137.161 4.59233 137.013 4.47301 136.826 4.37926C136.638 4.28551 136.398 4.23864 136.106 4.23864C135.705 4.23864 135.371 4.33097 135.104 4.51562C134.84 4.69744 134.708 4.92898 134.708 5.21023C134.708 5.46023 134.799 5.65767 134.981 5.80256C135.163 5.94744 135.447 6.06818 135.833 6.16477L136.805 6.40341C137.39 6.54545 137.826 6.76278 138.113 7.0554C138.4 7.34517 138.543 7.71875 138.543 8.17614C138.543 8.55114 138.435 8.88636 138.219 9.18182C138.006 9.47727 137.708 9.71023 137.325 9.88068C136.941 10.0511 136.495 10.1364 135.987 10.1364C135.319 10.1364 134.766 9.99148 134.329 9.7017C133.891 9.41193 133.614 8.98864 133.498 8.43182L134.452 8.19318C134.543 8.54545 134.715 8.80966 134.968 8.9858C135.224 9.16193 135.558 9.25 135.969 9.25C136.438 9.25 136.81 9.15057 137.086 8.9517C137.364 8.75 137.504 8.50852 137.504 8.22727C137.504 8 137.424 7.80966 137.265 7.65625C137.106 7.5 136.862 7.38352 136.532 7.30682L135.441 7.05114C134.842 6.90909 134.401 6.68892 134.12 6.39062C133.842 6.08949 133.702 5.71307 133.702 5.26136C133.702 4.89205 133.806 4.56534 134.013 4.28125C134.224 3.99716 134.509 3.77415 134.87 3.61222C135.234 3.45028 135.646 3.36932 136.106 3.36932C136.754 3.36932 137.262 3.51136 137.631 3.79545C138.004 4.07955 138.268 4.45455 138.424 4.92045ZM135.219 0.829545L136.106 2.02273L136.992 0.829545H137.947V0.897727L136.566 2.67045H135.646L134.265 0.897727V0.829545H135.219ZM141.983 10.1534C141.569 10.1534 141.192 10.0753 140.854 9.91903C140.516 9.75994 140.248 9.53125 140.049 9.23295C139.85 8.93182 139.75 8.56818 139.75 8.14205C139.75 7.76705 139.824 7.46307 139.972 7.23011C140.12 6.99432 140.317 6.80966 140.564 6.67614C140.811 6.54261 141.084 6.44318 141.382 6.37784C141.684 6.30966 141.986 6.25568 142.29 6.21591C142.688 6.16477 143.01 6.12642 143.257 6.10085C143.507 6.07244 143.689 6.02557 143.803 5.96023C143.919 5.89489 143.978 5.78125 143.978 5.61932V5.58523C143.978 5.16477 143.863 4.83807 143.632 4.60511C143.405 4.37216 143.06 4.25568 142.597 4.25568C142.117 4.25568 141.74 4.3608 141.468 4.57102C141.195 4.78125 141.003 5.00568 140.892 5.24432L139.938 4.90341C140.108 4.50568 140.336 4.19602 140.62 3.97443C140.907 3.75 141.219 3.59375 141.557 3.50568C141.898 3.41477 142.233 3.36932 142.563 3.36932C142.773 3.36932 143.015 3.39489 143.287 3.44602C143.563 3.49432 143.828 3.59517 144.084 3.74858C144.343 3.90199 144.557 4.13352 144.728 4.44318C144.898 4.75284 144.983 5.16761 144.983 5.6875V10H143.978V9.11364H143.926C143.858 9.25568 143.745 9.40767 143.586 9.5696C143.426 9.73153 143.215 9.86932 142.951 9.98295C142.686 10.0966 142.364 10.1534 141.983 10.1534ZM142.137 9.25C142.534 9.25 142.87 9.17188 143.142 9.01562C143.418 8.85938 143.625 8.65767 143.765 8.41051C143.907 8.16335 143.978 7.90341 143.978 7.63068V6.71023C143.935 6.76136 143.841 6.80824 143.696 6.85085C143.554 6.89062 143.39 6.92614 143.202 6.95739C143.017 6.9858 142.837 7.01136 142.661 7.03409C142.488 7.05398 142.347 7.07102 142.239 7.08523C141.978 7.11932 141.733 7.17472 141.506 7.25142C141.282 7.32528 141.1 7.4375 140.961 7.58807C140.824 7.7358 140.756 7.9375 140.756 8.19318C140.756 8.54261 140.885 8.80682 141.144 8.9858C141.405 9.16193 141.736 9.25 142.137 9.25ZM147.825 1.27273V10H146.819V1.27273H147.825ZM151.593 10.1534C151.178 10.1534 150.801 10.0753 150.463 9.91903C150.125 9.75994 149.857 9.53125 149.658 9.23295C149.459 8.93182 149.36 8.56818 149.36 8.14205C149.36 7.76705 149.434 7.46307 149.581 7.23011C149.729 6.99432 149.926 6.80966 150.174 6.67614C150.421 6.54261 150.694 6.44318 150.992 6.37784C151.293 6.30966 151.596 6.25568 151.9 6.21591C152.297 6.16477 152.62 6.12642 152.867 6.10085C153.117 6.07244 153.299 6.02557 153.412 5.96023C153.529 5.89489 153.587 5.78125 153.587 5.61932V5.58523C153.587 5.16477 153.472 4.83807 153.242 4.60511C153.015 4.37216 152.669 4.25568 152.206 4.25568C151.726 4.25568 151.35 4.3608 151.077 4.57102C150.804 4.78125 150.613 5.00568 150.502 5.24432L149.547 4.90341C149.718 4.50568 149.945 4.19602 150.229 3.97443C150.516 3.75 150.828 3.59375 151.167 3.50568C151.507 3.41477 151.843 3.36932 152.172 3.36932C152.382 3.36932 152.624 3.39489 152.897 3.44602C153.172 3.49432 153.438 3.59517 153.694 3.74858C153.952 3.90199 154.167 4.13352 154.337 4.44318C154.507 4.75284 154.593 5.16761 154.593 5.6875V10H153.587V9.11364H153.536C153.468 9.25568 153.354 9.40767 153.195 9.5696C153.036 9.73153 152.824 9.86932 152.56 9.98295C152.296 10.0966 151.973 10.1534 151.593 10.1534ZM151.746 9.25C152.144 9.25 152.479 9.17188 152.752 9.01562C153.027 8.85938 153.235 8.65767 153.374 8.41051C153.516 8.16335 153.587 7.90341 153.587 7.63068V6.71023C153.544 6.76136 153.451 6.80824 153.306 6.85085C153.164 6.89062 152.999 6.92614 152.811 6.95739C152.627 6.9858 152.446 7.01136 152.27 7.03409C152.097 7.05398 151.956 7.07102 151.848 7.08523C151.587 7.11932 151.343 7.17472 151.115 7.25142C150.891 7.32528 150.709 7.4375 150.57 7.58807C150.434 7.7358 150.365 7.9375 150.365 8.19318C150.365 8.54261 150.495 8.80682 150.753 8.9858C151.015 9.16193 151.346 9.25 151.746 9.25Z" fill="black"/>
  </symbol>
</svg>
